<svg xmlns="http://www.w3.org/2000/svg" width="19" height="30">
    <path fill-rule="evenodd" d="M15.472 1.585c-.995 0-1.894.393-2.535 1.025C12.579 1.115 11.177 0 9.5 0 7.553 0 5.974 1.504 5.974 3.36v5.68c-.634-.582-1.495-.941-2.446-.941-1.947 0-3.526 1.504-3.526 3.36v9.611h.004C.08 26.486 4.301 30 9.5 30s9.42-3.514 9.495-8.93h.003V4.945c0-1.856-1.578-3.36-3.526-3.36zM7.055 12.473V3.36c0-1.248 1.097-2.263 2.445-2.263 1.349 0 2.446 1.015 2.446 2.263v1.545l-.001.04V13.415c-.329-.084-.675-.13-1.034-.13H7.055v-.812zm-5.973 2.44v-3.454c0-1.248 1.097-2.263 2.446-2.263 1.349 0 2.446 1.015 2.446 2.263v4.221c0 1.248-1.097 2.263-2.446 2.263-.772 0-1.459-.333-1.908-.851-.262-.302-.44-.668-.507-1.068-.018-.112-.031-.227-.031-.344v-.767zm16.836-1.097V20.806l-.004.249c-.031 2.289-.883 4.258-2.465 5.693-1.531 1.39-3.644 2.155-5.949 2.155-2.305 0-4.418-.765-5.949-2.155-1.582-1.435-2.434-3.404-2.465-5.693l-.004-.202v-2.718l.003-.033c.634.581 1.495.938 2.443.938 1.271 0 2.383-.64 3.004-1.6.331-.512.523-1.114.523-1.76v-1.297h3.856c.365 0 .714.063 1.034.177h.001c.416.148.785.382 1.08.678l.001.001c.456.459.735 1.067.735 1.734 0 .245-.039.483-.109.708-.113.36-.309.688-.569.965-.522.561-1.303.917-2.173.917H9.612c-.046-.012-.092-.021-.141-.021-.05 0-.097.009-.142.021-.235.064-.409.279-.409.538 0 .309.247.559.551.559h1.44c1.263 0 2.385-.558 3.105-1.426.237-.287.431-.608.571-.953.165-.407.255-.847.255-1.308 0-1.306-.724-2.452-1.815-3.107v-8.94c.011-1.239 1.103-2.244 2.445-2.244 1.349 0 2.446 1.015 2.446 2.263v8.871z"/>
</svg>
