<?xml version="1.0" encoding="utf-8"?>
<!-- Generator: Adobe Illustrator 21.1.0, SVG Export Plug-In . SVG Version: 6.00 Build 0)  -->
<svg version="1.1" id="레이어_1" xmlns="http://www.w3.org/2000/svg" xmlns:xlink="http://www.w3.org/1999/xlink" x="0px"
	 y="0px" viewBox="0 0 190 300" style="enable-background:new 0 0 190 300;" xml:space="preserve">
<path d="M154.7,15.9c-9.9,0-18.9,3.9-25.3,10.3C125.8,11.1,111.8,0,95,0C75.5,0,59.7,15,59.7,33.6v56.8C53.4,84.6,44.8,81,35.3,81
	C15.8,81,0,96,0,114.6v96.1h0C0.8,264.9,43,300,95,300s94.2-35.1,94.9-89.3h0V49.5C190,30.9,174.2,15.9,154.7,15.9z M70.5,124.7
	V33.6C70.5,21.1,81.5,11,95,11c13.5,0,24.5,10.1,24.5,22.6V49l0,0.4v84.7c-3.3-0.8-6.8-1.3-10.3-1.3H70.5V124.7z M10.8,149.1v-34.5
	c0-12.5,11-22.6,24.5-22.6s24.5,10.2,24.5,22.6v42.2c0,12.5-11,22.6-24.5,22.6c-7.7,0-14.6-3.3-19.1-8.5c-2.6-3-4.4-6.7-5.1-10.7
	c-0.2-1.1-0.3-2.3-0.3-3.4C10.8,156.8,10.8,149.1,10.8,149.1z M179.2,138.2v69.9l0,2.5c-0.3,22.9-8.8,42.6-24.6,56.9
	C139.2,281.4,118,289,95,289s-44.2-7.6-59.5-21.6c-15.8-14.3-24.3-34-24.6-56.9l0-2v-27.2l0-0.3c6.3,5.8,15,9.4,24.4,9.4
	c12.7,0,23.8-6.4,30-16c3.3-5.1,5.2-11.1,5.2-17.6v-13h38.6c3.7,0,7.1,0.6,10.3,1.8h0c4.2,1.5,7.8,3.8,10.8,6.8l0,0
	c4.6,4.6,7.3,10.7,7.3,17.3c0,2.5-0.4,4.8-1.1,7.1c-1.1,3.6-3.1,6.9-5.7,9.6c-5.2,5.6-13,9.2-21.7,9.2h-13c-0.5-0.1-0.9-0.2-1.4-0.2
	c-0.5,0-1,0.1-1.4,0.2c-2.3,0.6-4.1,2.8-4.1,5.4c0,3.1,2.5,5.6,5.5,5.6h14.4c12.6,0,23.9-5.6,31-14.3c2.4-2.9,4.3-6.1,5.7-9.5
	c1.6-4.1,2.6-8.5,2.6-13.1c0-13.1-7.2-24.5-18.2-31.1V49.3c0.1-12.4,11-22.4,24.4-22.4c13.5,0,24.5,10.1,24.5,22.6V138.2z"/>
</svg>
